<?xml version="1.0" ?><!DOCTYPE svg  PUBLIC '-//W3C//DTD SVG 1.1//EN'  'http://www.w3.org/Graphics/SVG/1.1/DTD/svg11.dtd'><svg enable-background="new 0 0 24 24" height="24px" id="Layer_1" version="1.1" viewBox="0 0 24 24" width="24px" xml:space="preserve" xmlns="http://www.w3.org/2000/svg" xmlns:xlink="http://www.w3.org/1999/xlink"><path d="M18,14.8h-4c-0.3,0-0.5,0.2-0.5,0.5V23H8.6v-7.7c0-0.3-0.2-0.5-0.5-0.5H5.6V9.9H8c0.3,0,0.5-0.2,0.5-0.5V6.7  C8.5,5.4,9,1,14.3,1l4.1,0v4.1h-2.8c-0.8,0-1.8,0.5-1.8,1.9v1.9h-1.5c-0.3,0-0.5,0.2-0.5,0.5s0.2,0.5,0.5,0.5h2H17h1.4L18,14.8z"/></svg>